<svg width="11" height="27" viewBox="0 0 11 27" fill="none" xmlns="http://www.w3.org/2000/svg">
<path d="M3.23524 9.38292V15.0327C3.23524 15.4599 3.31394 15.7522 3.47135 15.9096C3.62876 16.0558 3.83676 16.1289 4.09535 16.1289C4.16281 16.1289 4.24713 16.1176 4.34832 16.0951C4.44951 16.0614 4.52821 16.0445 4.58443 16.0445C4.68562 16.0445 4.76994 16.0895 4.8374 16.1795C4.91611 16.2582 4.95546 16.3537 4.95546 16.4662C4.95546 16.6236 4.86551 16.7585 4.68562 16.8709C4.50573 16.9721 4.29211 17.0227 4.04476 17.0227C3.74119 17.0227 3.47135 16.9946 3.23524 16.9384C2.99913 16.8822 2.76865 16.7135 2.54378 16.4324C2.33016 16.1514 2.22335 15.7016 2.22335 15.0832V9.38292H0.992214C0.857296 9.38292 0.739241 9.33795 0.638052 9.248C0.548106 9.15806 0.503133 9.04562 0.503133 8.9107C0.503133 8.77579 0.548106 8.66335 0.638052 8.57341C0.739241 8.48346 0.857296 8.43849 0.992214 8.43849H2.22335V6.56649C2.22335 6.42033 2.26832 6.30227 2.35827 6.21233C2.45946 6.11114 2.58313 6.06054 2.7293 6.06054C2.87546 6.06054 2.99351 6.11114 3.08346 6.21233C3.18465 6.30227 3.23524 6.42033 3.23524 6.56649V8.43849H4.92173C5.0454 8.43849 5.15221 8.48908 5.24216 8.59027C5.34335 8.69146 5.39394 8.80389 5.39394 8.92757C5.39394 9.06249 5.34897 9.17492 5.25903 9.26487C5.16908 9.34357 5.05665 9.38292 4.92173 9.38292H3.23524Z" fill="black"/>
<path d="M5.20274 14.4705C5.83236 14.4705 6.41701 14.6167 6.95669 14.909C7.50761 15.2013 7.94609 15.6286 8.27215 16.1907C8.60945 16.7529 8.77809 17.4162 8.77809 18.1808C8.77809 18.9453 8.59258 19.6255 8.22155 20.2214C7.86177 20.8173 7.36707 21.2839 6.73745 21.6212C6.10782 21.9473 5.41074 22.1103 4.6462 22.1103C4.16274 22.1103 3.69615 22.0316 3.24642 21.8742C2.79669 21.7168 2.41442 21.4807 2.09961 21.1659C1.9422 21.0534 1.8635 20.9185 1.8635 20.7611C1.8635 20.6262 1.91409 20.5025 2.01528 20.3901C2.11647 20.2664 2.23453 20.2046 2.36945 20.2046C2.50436 20.2046 2.64491 20.2664 2.79107 20.3901C3.26328 20.896 3.91539 21.149 4.74739 21.149C5.28707 21.149 5.78739 21.0253 6.24836 20.778C6.70934 20.5306 7.07474 20.1821 7.34458 19.7324C7.61442 19.2826 7.74934 18.7767 7.74934 18.2145C7.74934 17.5961 7.6088 17.0789 7.32772 16.6629C7.05788 16.2469 6.69809 15.9434 6.24836 15.7522C5.80988 15.5499 5.34328 15.4487 4.84858 15.4487C4.71366 15.4487 4.53939 15.4712 4.32577 15.5161C4.11215 15.5499 3.97723 15.5667 3.92101 15.5667C3.78609 15.5667 3.67366 15.5218 3.58372 15.4318C3.50501 15.3306 3.46566 15.2069 3.46566 15.0608C3.46566 14.9146 3.52188 14.7853 3.63431 14.6729L6.8555 11.0975H2.16707C2.03215 11.0975 1.91409 11.0526 1.81291 10.9626C1.72296 10.8727 1.67799 10.7546 1.67799 10.6085C1.67799 10.4735 1.72296 10.3611 1.81291 10.2712C1.91409 10.1812 2.03215 10.1362 2.16707 10.1362H7.83366C8.01355 10.1362 8.14285 10.1925 8.22155 10.3049C8.3115 10.4061 8.35647 10.5241 8.35647 10.6591C8.35647 10.794 8.30026 10.9177 8.18782 11.0301L5.10155 14.4705H5.20274Z" fill="black"/>
</svg>
