<svg width="18" height="24" viewBox="0 0 18 24" fill="none" xmlns="http://www.w3.org/2000/svg">
<path d="M17.9915 17.5992C17.7589 13.2565 11.8651 11.2757 11.3222 11.0471C11.3222 11.0471 11.3222 11.0471 11.3222 10.9709L17.3711 5.2569V4.6474C17.3711 4.57121 17.2936 4.49503 17.216 4.49503H6.12642V1.06662V0L2.01629 0.838056V1.44755H2.24894C2.24894 1.44755 3.25708 1.44755 3.25708 2.36179V4.49503H0.0775485C-1.18447e-06 4.49503 0 4.57121 0 4.57121V5.94258H3.33463V9.06624V13.2565C3.33463 15.5421 4.88563 17.1421 7.67742 16.9135C8.29781 16.8373 8.76311 16.6849 9.22841 16.3802C9.46106 16.2278 9.53861 16.0754 9.53861 15.8469V15.1612C8.60801 15.6945 7.91006 15.6945 7.91006 15.6945C6.20397 15.6945 6.20397 13.6375 6.20397 13.6375V6.09495H14.1916L8.45291 11.5042C8.45291 12.1899 8.45291 12.7994 8.45291 12.7994C13.7263 13.6375 15.1997 16.8373 15.1997 17.7515C15.1997 17.7515 15.7426 22.3228 10.9345 22.6275C10.9345 22.6275 7.75496 22.7799 7.21212 21.5609C7.21212 21.4847 7.21212 21.4847 7.28967 21.4847C7.83251 21.2561 8.14271 20.799 8.14271 20.2657C8.14271 19.3515 7.59987 18.6658 6.35907 18.6658C5.35093 18.6658 4.57543 19.3515 4.57543 20.2657C4.57543 20.2657 4.11013 24.0751 10.9345 23.9989C18.5344 23.6941 17.9915 17.5992 17.9915 17.5992Z" fill="url(#paint0_linear)"/>
<defs>
<linearGradient id="paint0_linear" x1="20.126" y1="12" x2="-1.34515" y2="13.245" gradientUnits="userSpaceOnUse">
<stop stop-color="#9F329F"/>
<stop offset="1" stop-color="#1161FE"/>
</linearGradient>
</defs>
</svg>
